<svg width="158" height="35" viewBox="0 0 158 35" fill="none" xmlns="http://www.w3.org/2000/svg">
<path fill-rule="evenodd" clip-rule="evenodd" d="M42.5504 3.53227H28.4939C28.4329 3.53227 28.3804 3.54734 28.3193 3.54985L24.3892 0V7.67104L24.3965 7.66728C24.4343 9.88232 26.2498 11.6642 28.4939 11.6642L42.5504 11.6667C44.8201 11.6667 46.6576 9.84465 46.6576 7.59947C46.6576 5.35177 44.8189 3.53227 42.5504 3.53227Z" fill="white"/>
<path fill-rule="evenodd" clip-rule="evenodd" d="M45.4826 28.4964L35.7582 19.2734C34.9545 18.5101 33.8928 18.1454 32.8407 18.1642C32.8133 18.1642 32.7894 18.1572 32.7643 18.1572H14.4213C14.3066 18.1572 13.4516 18.1654 13.1375 18.2125L9.24914 14.8484V20.8367L1.1751 28.4976C-0.3917 29.9867 -0.3917 32.3969 1.1751 33.8848C2.7431 35.3716 5.28676 35.3716 6.85356 33.8848L15.4017 25.7758H31.2572L39.8053 33.8848C41.3722 35.3716 43.9134 35.3716 45.4826 33.8848C47.0494 32.3969 47.0494 29.9844 45.4826 28.4964Z" fill="white"/>
<path fill-rule="evenodd" clip-rule="evenodd" d="M4.24046 7.83896C2.25651 7.83896 0.642907 6.22604 0.642907 4.24183C0.642907 2.25761 2.25651 0.644691 4.24046 0.644691C6.2244 0.644691 7.838 2.25761 7.838 4.24183C7.838 6.22604 6.2244 7.83896 4.24046 7.83896ZM4.24046 0C1.90228 0 0 1.90184 0 4.24183C0 6.58062 1.90228 8.48485 4.24046 8.48485C6.57979 8.48485 8.48322 6.58062 8.48322 4.24183C8.48322 1.90184 6.57979 0 4.24046 0Z" fill="white"/>
<path fill-rule="evenodd" clip-rule="evenodd" d="M4.65054 4.16145C4.95112 3.95038 5.29703 3.6721 5.29703 3.12499C5.29703 2.47708 4.82399 2.12109 4.23071 2.12109C3.95477 2.12109 3.21663 2.21035 3.21663 3.24471H3.81286C3.8168 3.01053 3.82961 2.6493 4.25732 2.6493C4.55593 2.6493 4.68602 2.89187 4.68602 3.10294C4.68602 3.46103 4.46132 3.62169 3.90254 4.04069C3.23141 4.54159 3.20283 4.93117 3.18115 5.30291H5.30196V4.74951H3.95477C4.02474 4.59934 4.2386 4.45653 4.65054 4.16145Z" fill="white"/>
<path fill-rule="evenodd" clip-rule="evenodd" d="M69.9433 15.8778C69.9433 17.2399 69.3923 17.676 68.3641 17.676H66.8408V11.2153H68.3641C69.3923 11.2153 69.9433 11.6489 69.9433 13.0135V15.8778ZM68.3641 8.48486H63.624V27.5758H66.8408V20.4052H68.3641C71.5847 20.4052 73.1676 18.7384 73.1676 15.6862V13.2063C73.1676 10.1492 71.5847 8.48486 68.3641 8.48486Z" fill="white"/>
<path fill-rule="evenodd" clip-rule="evenodd" d="M78.9829 21.5229L80.4406 11.87L81.9019 21.5229H78.9829ZM78.3772 8.48486L75.2886 27.5758H78.0713L78.5958 24.1145H82.3165L82.8339 27.5758H85.8926L82.8135 8.48486H78.3772Z" fill="white"/>
<path fill-rule="evenodd" clip-rule="evenodd" d="M94.1229 15.0593C94.1229 16.5835 93.4267 17.076 92.2825 17.076H91.0777V11.2163H92.561C93.6519 11.2163 94.1229 11.8145 94.1229 13.1741V15.0593ZM97.2214 22.313C97.2214 20.3221 96.7177 18.8765 95.1836 18.2502C96.5518 17.6201 97.196 16.3416 97.196 14.3802V12.8793C97.196 9.93044 95.829 8.48486 92.6433 8.48486H88.0132V27.5758H91.0778V19.8063H92.1445C93.5369 19.8063 94.1532 20.4572 94.1532 22.2307V25.2361C94.1532 26.7885 94.2646 27.087 94.4305 27.5758H97.5568C97.2517 26.8671 97.2214 26.1855 97.2214 25.257V22.313Z" fill="white"/>
<path fill-rule="evenodd" clip-rule="evenodd" d="M103.368 21.5229L104.827 11.87L106.289 21.5229H103.368ZM102.768 8.48486L99.6777 27.5758H102.459L102.985 24.1145H106.7L107.226 27.5758H110.282L107.197 8.48486H102.768Z" fill="white"/>
<path fill-rule="evenodd" clip-rule="evenodd" d="M118.841 22.9931C118.841 24.3577 118.246 24.8527 117.262 24.8527H115.512V11.2153H117.262C118.246 11.2153 118.841 11.7041 118.841 13.0663V22.9931ZM117.317 8.48486H112.403V27.5758H117.317C120.423 27.5758 121.946 25.9176 121.946 22.8592V13.2063C121.946 10.1479 120.423 8.48486 117.317 8.48486Z" fill="white"/>
<path fill-rule="evenodd" clip-rule="evenodd" d="M131.525 23.0684C131.525 24.4048 130.896 24.9103 129.895 24.9103C128.9 24.9103 128.269 24.4048 128.269 23.0684V12.9934C128.269 11.6607 128.9 11.1516 129.895 11.1516C130.896 11.1516 131.525 11.6607 131.525 12.9934V23.0684ZM129.895 8.48486C126.811 8.48486 125.127 10.1934 125.127 13.1771V22.8823C125.127 25.8696 126.811 27.5758 129.895 27.5758C132.98 27.5758 134.671 25.8696 134.671 22.8823V13.1771C134.671 10.1934 132.98 8.48486 129.895 8.48486Z" fill="white"/>
<path fill-rule="evenodd" clip-rule="evenodd" d="M141.562 8.48486C138.415 8.48486 136.792 10.1923 136.792 13.1762V22.8832C136.792 25.8707 138.415 27.5758 141.562 27.5758C144.708 27.5758 146.336 25.8707 146.336 22.8832V16.9646H141.857V19.6303H143.311V23.0693C143.311 24.4058 142.669 24.8825 141.652 24.8825C140.632 24.8825 139.991 24.4058 139.991 23.0693V12.9925C139.991 11.6609 140.632 11.1506 141.652 11.1506C142.669 11.1506 143.311 11.6609 143.311 12.9925V14.993H146.336V13.1762C146.336 10.1923 144.708 8.48486 141.562 8.48486Z" fill="white"/>
<path fill-rule="evenodd" clip-rule="evenodd" d="M151.745 12.9925C151.745 11.6597 152.323 11.1506 153.35 11.1506C154.365 11.1506 154.948 11.6597 154.948 12.9925V13.7646H157.971V13.1762C157.971 10.1923 156.374 8.48486 153.257 8.48486C150.144 8.48486 148.546 10.1923 148.546 13.1762C148.546 18.51 154.8 19.2329 154.8 23.0681C154.8 24.4034 154.16 24.8825 153.141 24.8825C152.124 24.8825 151.482 24.4034 151.482 23.0681V21.7329H148.457V22.8808C148.457 25.8707 150.082 27.5758 153.231 27.5758C156.374 27.5758 158 25.8707 158 22.8808C158 17.5518 151.745 16.8338 151.745 12.9925Z" fill="white"/>
</svg>
